<svg id="Layer_1" data-name="Layer 1" xmlns="http://www.w3.org/2000/svg" viewBox="0 0 44 44"><defs><style>.cls-1{fill:#393d58;}</style></defs><title>blue-icon-feedburner</title><path class="cls-1" d="M16.21,37.88q-4.77-2.67-6.38-5.45A8.88,8.88,0,0,1,9,26a15.77,15.77,0,0,1,1.1-3.19c.54-1.19,1-2.35,1.47-3.47a10.11,10.11,0,0,0,.74-3.19,14.47,14.47,0,0,1,1.13,2.54,10.37,10.37,0,0,1,.43,2.57,23.86,23.86,0,0,0,3.92-7,25,25,0,0,0,1.54-8.16l.91.58c.38.25,1.06.79,2,1.63a24,24,0,0,1,2.64,2.59,16.64,16.64,0,0,1,2.17,3.4,11.35,11.35,0,0,1,1.18,4.16,8.37,8.37,0,0,0,.71-2.75,6.51,6.51,0,0,0-.34-2.81,13.12,13.12,0,0,1,1,1,21.28,21.28,0,0,1,1.5,1.75A28.83,28.83,0,0,1,32.79,18a16.09,16.09,0,0,1,1.42,2.88,19.11,19.11,0,0,1,.91,3.24,10.54,10.54,0,0,1,0,3.46A12,12,0,0,1,34,31.13a12.57,12.57,0,0,1-2.67,3.48,21.88,21.88,0,0,1-4.48,3.27,12.5,12.5,0,0,0,1.34-4.83,15.06,15.06,0,0,0-.45-5,15.53,15.53,0,0,0-2.08-4.59,12.85,12.85,0,0,0-3.41-3.55,12.28,12.28,0,0,1-.09,3.58c-.14.83-.3,1.64-.49,2.43a13.05,13.05,0,0,1-.85,2.38,7.72,7.72,0,0,1-1.24,1.94,15.94,15.94,0,0,0,.14-3.6,6.8,6.8,0,0,0-.46-2.07L19,23.88c0,.07,0,.17-.07.29s-.1.38-.21.76-.24.75-.39,1.12a12.05,12.05,0,0,1-.62,1.35,14.1,14.1,0,0,1-.88,1.48,11.41,11.41,0,0,0-1.06,1.83,9,9,0,0,0-.6,1.92,6,6,0,0,0,0,2.41A12.06,12.06,0,0,0,16.21,37.88Z"/></svg>