<svg id="Layer_1" data-name="Layer 1" xmlns="http://www.w3.org/2000/svg" viewBox="0 0 44 44"><defs><style>.cls-1{fill:#ff9f17;}</style></defs><title>icon-orange-s3</title><path class="cls-1" d="M3.76,31.19c.11-.18.29-.19.54,0A35.41,35.41,0,0,0,22.4,36a35.82,35.82,0,0,0,12.88-2.43l.5-.2a3.93,3.93,0,0,0,.43-.2.62.62,0,0,1,.8.2c.2.26.13.51-.2.73s-.91.62-1.53,1a25,25,0,0,1-6.39,2.63,27,27,0,0,1-16.71-.87A26.46,26.46,0,0,1,3.9,31.72c-.14-.11-.2-.21-.2-.3A.41.41,0,0,1,3.76,31.19Zm10-9.49a6.76,6.76,0,0,1,1.13-3.93A7.11,7.11,0,0,1,18,15.31a16.58,16.58,0,0,1,4.42-1.1L25.36,14v-.57a6,6,0,0,0-.46-2.86,2.49,2.49,0,0,0-2.2-1h-.27a3.64,3.64,0,0,0-1.89.7,2.72,2.72,0,0,0-1,1.66.84.84,0,0,1-.66.77L15,12.18c-.38-.09-.56-.29-.56-.6a1.11,1.11,0,0,1,0-.23A6.38,6.38,0,0,1,17.27,7a10.43,10.43,0,0,1,5.16-1.6h.83a8.47,8.47,0,0,1,5.93,2c.22.23.43.46.63.7a2.88,2.88,0,0,1,.43.7q.13.33.3.87a5.46,5.46,0,0,1,.2.76l.1.93a4.29,4.29,0,0,1,0,.87v8a4.35,4.35,0,0,0,.26,1.57,6.6,6.6,0,0,0,.47,1,11.74,11.74,0,0,0,.76,1,1,1,0,0,1,.2.55.57.57,0,0,1-.26.45l-3,2.59a.91.91,0,0,1-1,.07,8.53,8.53,0,0,1-.8-.76l-.5-.54a4.83,4.83,0,0,1-.5-.66,3.73,3.73,0,0,0-.47-.63,8.12,8.12,0,0,1-3.66,2.52,9.66,9.66,0,0,1-2.79.34,5.74,5.74,0,0,1-4.2-1.6A6.07,6.07,0,0,1,13.78,21.7ZM19.5,21a3.06,3.06,0,0,0,.67,2.06,2.27,2.27,0,0,0,1.73.8,1.37,1.37,0,0,0,.3,0l.23,0A3.4,3.4,0,0,0,24.6,22a5.54,5.54,0,0,0,.56-1.39,5.26,5.26,0,0,0,.2-1.2V17.07a12,12,0,0,0-2.93.27A3.58,3.58,0,0,0,19.5,21Zm14,10.71a1.17,1.17,0,0,1,.2-.27,5.37,5.37,0,0,1,1.6-.76,11.37,11.37,0,0,1,2.46-.37,1.88,1.88,0,0,1,.63,0c1,.09,1.6.25,1.8.5a1.05,1.05,0,0,1,.13.59v.24a7.73,7.73,0,0,1-.63,2.76A6.15,6.15,0,0,1,37.91,37a.47.47,0,0,1-.27.13.35.35,0,0,1-.16,0c-.14-.07-.17-.19-.1-.37a12.72,12.72,0,0,0,1.23-4,.85.85,0,0,0-.14-.54c-.22-.26-.84-.4-1.86-.4-.38,0-.82,0-1.33.07l-1.53.2a.37.37,0,0,1-.27-.07s-.06-.08,0-.11A1,1,0,0,1,33.48,31.75Z"/></svg>